http://192.168.124.42:8096/videos/0e397591-eb65-c0ee-0e96-40e2f3c91934/hls1/main/0.ts?DeviceId=TW96aWxsYS81LjAgKFdpbmRvd3MgTlQgMTAuMDsgV09XNjQpIEFwcGxlV2ViS2l0LzUzNy4zNiAoS0hUTUwsIGxpa2UgR2Vja28pIENocm9tZS83OC4wLjM5MDQuMTA4IFNhZmFyaS81MzcuMzZ8MTU4MzAzMzA4OTE2NA11&MediaSourceId=0e397591eb65c0ee0e9640e2f3c91934&VideoCodec=h264&AudioCodec=mp3,aac&AudioStreamIndex=1&SubtitleStreamIndex=2&VideoBitrate=139616000&AudioBitrate=384000&PlaySessionId=6df101212eec4c51a063feb6d4a73e0b&api_key=8e60e01047384e1096c214d31fe059e9&SubtitleMethod=Encode&TranscodingMaxAudioChannels=2&RequireAvc=false&Tag=bd3268db4a39b913168d955b99020678&SegmentContainer=ts&MinSegments=1&BreakOnNonKeyFrames=True&h264-profile=high,main,baseline,constrainedbaseline,high10&h264-level=51&TranscodeReasons=SubtitleCodecNotSupported

{"Protocol":"File","Id":"0e397591eb65c0ee0e9640e2f3c91934","Path":"E:\\Pt\\MOVIE\\[X战警黑凤凰]Dark.Phoenix.2019.BluRay.1080p.x264.DTS-HD.MA7.1-BtsHD.mkv","Type":"Default","Container":"mkv,webm","Size":12037472256,"Name":"[X战警黑凤凰]Dark.Phoenix.2019.BluRay.1080p.x264.DTS-HD.MA7.1-BtsHD","IsRemote":false,"ETag":"bd3268db4a39b913168d955b99020678","RunTimeTicks":68364161024,"ReadAtNativeFramerate":false,"IgnoreDts":false,"IgnoreIndex":false,"GenPtsInput":false,"SupportsTranscoding":true,"SupportsDirectStream":true,"SupportsDirectPlay":true,"IsInfiniteStream":false,"RequiresOpening":false,"RequiresClosing":false,"RequiresLooping":false,"SupportsProbing":true,"VideoType":"VideoFile","MediaStreams":[{"Codec":"h264","TimeBase":"1/1000","CodecTimeBase":"1001/48000","VideoRange":"SDR","DisplayTitle":"1080P H264","NalLengthSize":"4","IsInterlaced":false,"IsAVC":true,"BitRate":14086296,"BitDepth":8,"RefFrames":1,"IsDefault":true,"IsForced":false,"Height":1080,"Width":1920,"AverageFrameRate":23.9760246,"RealFrameRate":23.9760246,"Profile":"High","Type":"Video","AspectRatio":"16:9","Index":0,"IsExternal":false,"IsTextSubtitleStream":false,"SupportsExternalStream":false,"PixelFormat":"yuv420p","Level":41},{"Codec":"dts","Language":"eng","TimeBase":"1/1000","CodecTimeBase":"1/48000","DisplayTitle":"Eng DTS 7.1 Default","IsInterlaced":false,"ChannelLayout":"7.1","BitDepth":24,"Channels":8,"SampleRate":48000,"IsDefault":true,"IsForced":false,"Profile":"DTS-HD MA","Type":"Audio","Index":1,"IsExternal":false,"IsTextSubtitleStream":false,"SupportsExternalStream":false,"Level":0},{"Codec":"PGSSUB","Language":"chi","TimeBase":"1/1000","CodecTimeBase":"0/1","localizedUndefined":"Undefined","localizedDefault":"Default","localizedForced":"Forced","DisplayTitle":"Chi - Default","IsInterlaced":false,"IsDefault":true,"IsForced":false,"Type":"Subtitle","Index":2,"IsExternal":false,"IsTextSubtitleStream":false,"SupportsExternalStream":false,"Level":0}],"Formats":[],"Bitrate":14086296,"RequiredHttpHeaders":{}}

C:\Users\Administrator\Desktop\jellyfin_10.4.3\ffmpeg.exe -hwaccel d3d11va -i file:"E:\Pt\MOVIE\[X战警黑凤凰]Dark.Phoenix.2019.BluRay.1080p.x264.DTS-HD.MA7.1-BtsHD.mkv" -map_metadata -1 -map_chapters -1 -threads 0 -map 0:0 -map 0:1 -codec:v:0 libx264 -pix_fmt yuv420p -preset veryfast -crf 23 -maxrate 14086296 -bufsize 28172592 -profile:v high -level 4.1 -x264opts:0 subme=0:me_range=4:rc_lookahead=10:me=dia:no_chroma_me:8x8dct=0:partitions=none -force_key_frames:0 "expr:gte(t,0+n_forced*3)" -filter_complex "[0:2]scale=1920:1080:force_original_aspect_ratio=decrease[sub];[0:0][sub]overlay,scale=trunc(min(max(iw\,ih*dar)\,1920)/2)*2:trunc(ow/dar/2)*2" -copyts -vsync -1 -codec:a:0 libmp3lame -ac 2 -ab 384000  -f hls -max_delay 5000000 -avoid_negative_ts disabled -start_at_zero -hls_time 3 -individual_header_trailer 0 -hls_segment_type mpegts -start_number 0 -hls_segment_filename "E:\jftemp\transcodes\transcodes\transcodes\transcodes\transcodes\transcodes\transcodes\transcodes\transcodes\transcodes\transcodes\transcodes\transcodes\transcodes\transcodes\b1972bdf48b0c554f59c3a6e47542f0c%d.ts" -hls_playlist_type vod -hls_list_size 0 -y "E:\jftemp\transcodes\transcodes\transcodes\transcodes\transcodes\transcodes\transcodes\transcodes\transcodes\transcodes\transcodes\transcodes\transcodes\transcodes\transcodes\b1972bdf48b0c554f59c3a6e47542f0c.m3u8"


ffmpeg version 4.1.4 Copyright (c) 2000-2019 the FFmpeg developers
  built with gcc 9.1.1 (GCC) 20190716
  configuration: --enable-gpl --enable-version3 --enable-sdl2 --enable-fontconfig --enable-gnutls --enable-iconv --enable-libass --enable-libbluray --enable-libfreetype --enable-libmp3lame --enable-libopencore-amrnb --enable-libopencore-amrwb --enable-libopenjpeg --enable-libopus --enable-libshine --enable-libsnappy --enable-libsoxr --enable-libtheora --enable-libtwolame --enable-libvpx --enable-libwavpack --enable-libwebp --enable-libx264 --enable-libx265 --enable-libxml2 --enable-libzimg --enable-lzma --enable-zlib --enable-gmp --enable-libvidstab --enable-libvorbis --enable-libvo-amrwbenc --enable-libmysofa --enable-libspeex --enable-libxvid --enable-libaom --enable-libmfx --enable-amf --enable-ffnvcodec --enable-cuvid --enable-d3d11va --enable-nvenc --enable-nvdec --enable-dxva2 --enable-avisynth
  libavutil      56. 22.100 / 56. 22.100
  libavcodec     58. 35.100 / 58. 35.100
  libavformat    58. 20.100 / 58. 20.100
  libavdevice    58.  5.100 / 58.  5.100
  libavfilter     7. 40.101 /  7. 40.101
  libswscale      5.  3.100 /  5.  3.100
  libswresample   3.  3.100 /  3.  3.100
  libpostproc    55.  3.100 / 55.  3.100
[matroska,webm @ 00000180e658e700] Could not find codec parameters for stream 2 (Subtitle: hdmv_pgs_subtitle (pgssub)): unspecified size
Consider increasing the value for the 'analyzeduration' and 'probesize' options
Input #0, matroska,webm, from 'file:E:\Pt\MOVIE\[X战警黑凤凰]Dark.Phoenix.2019.BluRay.1080p.x264.DTS-HD.MA7.1-BtsHD.mkv':
  Metadata:
    encoder         : libebml v1.3.7 + libmatroska v1.5.0
    creation_time   : 2019-09-07T04:38:33.000000Z
  Duration: 01:53:56.42, start: 0.000000, bitrate: 14086 kb/s
    Stream #0:0: Video: h264 (High), yuv420p(progressive), 1920x1080 [SAR 1:1 DAR 16:9], 23.98 fps, 23.98 tbr, 1k tbn, 47.95 tbc (default)
    Metadata:
      BPS-eng         : 8992683
      DURATION-eng    : 01:53:56.413000000
      NUMBER_OF_FRAMES-eng: 163910
      NUMBER_OF_BYTES-eng: 7684712315
      _STATISTICS_WRITING_APP-eng: mkvmerge v34.0.0 ('Sight and Seen') 64-bit
      _STATISTICS_WRITING_DATE_UTC-eng: 2019-09-07 04:38:33
      _STATISTICS_TAGS-eng: BPS DURATION NUMBER_OF_FRAMES NUMBER_OF_BYTES
    Stream #0:1(eng): Audio: dts (DTS-HD MA), 48000 Hz, 7.1, s32p (24 bit) (default)
    Metadata:
      BPS-eng         : 5073541
      DURATION-eng    : 01:53:56.416000000
      NUMBER_OF_FRAMES-eng: 640914
      NUMBER_OF_BYTES-eng: 4335605008
      _STATISTICS_WRITING_APP-eng: mkvmerge v34.0.0 ('Sight and Seen') 64-bit
      _STATISTICS_WRITING_DATE_UTC-eng: 2019-09-07 04:38:33
      _STATISTICS_TAGS-eng: BPS DURATION NUMBER_OF_FRAMES NUMBER_OF_BYTES
    Stream #0:2(chi): Subtitle: hdmv_pgs_subtitle (default)
    Metadata:
      BPS-eng         : 31856
      DURATION-eng    : 01:43:41.549000000
      NUMBER_OF_FRAMES-eng: 2124
      NUMBER_OF_BYTES-eng: 24774917
      _STATISTICS_WRITING_APP-eng: mkvmerge v34.0.0 ('Sight and Seen') 64-bit
      _STATISTICS_WRITING_DATE_UTC-eng: 2019-09-07 04:38:33
      _STATISTICS_TAGS-eng: BPS DURATION NUMBER_OF_FRAMES NUMBER_OF_BYTES
Stream mapping:
  Stream #0:0 (h264) -> overlay:main (graph 0)
  Stream #0:2 (pgssub) -> scale (graph 0)
  scale (graph 0) -> Stream #0:0 (libx264)
  Stream #0:1 -> #0:1 (dts (dca) -> mp3 (libmp3lame))
Press [q] to stop, [?] for help
[matroska,webm @ 00000180e658e700] sub2video: using 1920x1080 canvas
[libx264 @ 00000180e6fbdd00] using SAR=1/1
[libx264 @ 00000180e6fbdd00] using cpu capabilities: MMX2 SSE2Fast SSSE3 SSE4.2 AVX FMA3 BMI2 AVX2
[libx264 @ 00000180e6fbdd00] profile Main, level 4.1, 4:2:0, 8-bit
[libx264 @ 00000180e6fbdd00] 264 - core 157 r2970 5493be8 - H.264/MPEG-4 AVC codec - Copyleft 2003-2019 - http://www.videolan.org/x264.html - options: cabac=1 ref=1 deblock=1:0:0 analyse=0x1:0 me=dia subme=0 psy=1 psy_rd=1.00:0.00 mixed_ref=0 me_range=4 chroma_me=0 trellis=0 8x8dct=0 cqm=0 deadzone=21,11 fast_pskip=1 chroma_qp_offset=0 threads=6 lookahead_threads=1 sliced_threads=0 nr=0 decimate=1 interlaced=0 bluray_compat=0 constrained_intra=0 bframes=3 b_pyramid=2 b_adapt=1 b_bias=0 direct=1 weightb=1 open_gop=0 weightp=1 keyint=250 keyint_min=23 scenecut=40 intra_refresh=0 rc_lookahead=10 rc=crf mbtree=1 crf=23.0 qcomp=0.60 qpmin=0 qpmax=69 qpstep=4 vbv_maxrate=14086 vbv_bufsize=28172 crf_max=0.0 nal_hrd=none filler=0 ip_ratio=1.40 aq=1:1.00
[hls @ 00000180e741eb00] Opening 'E:\jftemp\transcodes\transcodes\transcodes\transcodes\transcodes\transcodes\transcodes\transcodes\transcodes\transcodes\transcodes\transcodes\transcodes\transcodes\transcodes\b1972bdf48b0c554f59c3a6e47542f0c0.ts' for writing
Output #0, hls, to 'E:\jftemp\transcodes\transcodes\transcodes\transcodes\transcodes\transcodes\transcodes\transcodes\transcodes\transcodes\transcodes\transcodes\transcodes\transcodes\transcodes\b1972bdf48b0c554f59c3a6e47542f0c.m3u8':
  Metadata:
    encoder         : Lavf58.20.100
    Stream #0:0: Video: h264 (libx264), yuv420p, 1920x1080 [SAR 1:1 DAR 16:9], q=-1--1, 23.98 fps, 90k tbn, 23.98 tbc (default)
    Metadata:
      encoder         : Lavc58.35.100 libx264
    Side data:
      cpb: bitrate max/min/avg: 14086000/0/0 buffer size: 28172000 vbv_delay: -1
    Stream #0:1: Audio: mp3 (libmp3lame), 48000 Hz, stereo, s32p (24 bit), 384 kb/s (default)
    Metadata:
      encoder         : Lavc58.35.100 libmp3lame
frame=   23 fps=0.0 q=28.0 size=N/A time=00:00:01.12 bitrate=N/A speed=2.15x    
frame=   58 fps= 56 q=28.0 size=N/A time=00:00:02.56 bitrate=N/A speed=2.49x    
frame=   90 fps= 58 q=28.0 size=N/A time=00:00:03.88 bitrate=N/A speed=2.53x    
[hls @ 00000180e741eb00] Opening 'E:\jftemp\transcodes\transcodes\transcodes\transcodes\transcodes\transcodes\transcodes\transcodes\transcodes\transcodes\transcodes\transcodes\transcodes\transcodes\transcodes\b1972bdf48b0c554f59c3a6e47542f0c1.ts' for writing
frame=  117 fps= 57 q=28.0 size=N/A time=00:00:05.08 bitrate=N/A speed=2.49x    
[hls @ 00000180e741eb00] Cannot use rename on non file protocol, this may lead to races and temporary partial files
frame=  121 fps= 53 q=-1.0 Lsize=N/A time=00:00:05.35 bitrate=N/A speed=2.36x    
video:622kB audio:210kB subtitle:0kB other streams:0kB global headers:0kB muxing overhead: unknown
[libx264 @ 00000180e6fbdd00] frame I:3     Avg QP:12.23  size:  6647
[libx264 @ 00000180e6fbdd00] frame P:40    Avg QP:15.67  size:  8982
[libx264 @ 00000180e6fbdd00] frame B:78    Avg QP:16.72  size:  3293
[libx264 @ 00000180e6fbdd00] consecutive B-frames: 11.6%  1.7% 17.4% 69.4%
[libx264 @ 00000180e6fbdd00] mb I  I16..4: 97.8%  0.0%  2.2%
[libx264 @ 00000180e6fbdd00] mb P  I16..4: 26.4%  0.0%  0.0%  P16..4:  9.3%  0.0%  0.0%  0.0%  0.0%    skip:64.3%
[libx264 @ 00000180e6fbdd00] mb B  I16..4:  3.6%  0.0%  0.0%  B16..8:  6.6%  0.0%  0.0%  direct: 4.9%  skip:84.9%  L0:43.5% L1:48.2% BI: 8.3%
[libx264 @ 00000180e6fbdd00] coded y,uvDC,uvAC intra: 4.1% 31.5% 3.2% inter: 1.1% 8.9% 0.1%
[libx264 @ 00000180e6fbdd00] i16 v,h,dc,p: 51% 18%  7% 24%
[libx264 @ 00000180e6fbdd00] i4 v,h,dc,ddl,ddr,vr,hd,vl,hu: 44% 17% 31%  5%  1%  1%  1%  1%  0%
[libx264 @ 00000180e6fbdd00] i8c dc,h,v,p: 58% 17% 16%  9%
[libx264 @ 00000180e6fbdd00] Weighted P-Frames: Y:15.0% UV:12.5%
[libx264 @ 00000180e6fbdd00] kb/s:1008.34